<svg width="252" height="252" viewBox="0 0 252 252" fill="none" xmlns="http://www.w3.org/2000/svg">
  <rect width="252" height="252" rx="126" fill="black" />
  <path
    d="M47.7656 97.4375H85.0312V107.125H59.4844V120.875H82.6094V130.562H59.4844V154H47.7656V97.4375ZM90.9313 111.578H102.494V154H90.9313V111.578ZM96.7125 106.031C95.5667 106.031 94.512 105.771 93.5484 105.25C92.5849 104.703 91.8167 103.987 91.2438 103.102C90.6708 102.19 90.3844 101.214 90.3844 100.172C90.3844 99.1042 90.6708 98.1146 91.2438 97.2031C91.8167 96.2917 92.5849 95.5755 93.5484 95.0547C94.512 94.5078 95.5667 94.2344 96.7125 94.2344C97.8323 94.2344 98.874 94.5078 99.8375 95.0547C100.801 95.5755 101.556 96.2917 102.103 97.2031C102.676 98.1146 102.963 99.1042 102.963 100.172C102.963 101.214 102.676 102.19 102.103 103.102C101.556 103.987 100.801 104.703 99.8375 105.25C98.874 105.771 97.8323 106.031 96.7125 106.031ZM132.222 120.25H124.253V140.953C124.227 142.542 124.553 143.648 125.23 144.273C125.933 144.872 126.935 145.198 128.237 145.25C129.435 145.25 130.972 145.172 132.847 145.016V154.156C131.128 154.417 129.032 154.547 126.558 154.547C122.235 154.547 118.836 153.557 116.362 151.578C113.889 149.573 112.665 146.578 112.691 142.594V120.25H106.831V111.578H112.691V101.422H124.253V111.578H132.222V120.25ZM150.387 154H138.825V97.4375H150.387V154ZM164.569 169.938C161.678 169.885 159.725 169.807 158.709 169.703V160.719C160.037 160.823 161.6 160.875 163.397 160.875C164.308 160.875 165.077 160.797 165.702 160.641C166.327 160.484 166.912 160.12 167.459 159.547C168.006 159 168.501 158.141 168.944 156.969L169.647 155.172L154.412 111.578H166.522L175.428 142.828H175.897L184.881 111.578H197.147L180.584 158.688C179.308 162.307 177.381 165.081 174.803 167.008C172.251 168.935 168.84 169.911 164.569 169.938Z"
    fill="white" />
  <path
    d="M205.312 154.703C204.115 154.703 203.008 154.417 201.992 153.844C200.977 153.245 200.169 152.451 199.57 151.461C198.997 150.445 198.724 149.339 198.75 148.141C198.724 146.969 198.997 145.888 199.57 144.898C200.169 143.883 200.977 143.089 201.992 142.516C203.008 141.943 204.115 141.656 205.312 141.656C206.458 141.656 207.526 141.943 208.516 142.516C209.505 143.089 210.299 143.883 210.898 144.898C211.497 145.888 211.797 146.969 211.797 148.141C211.797 149.339 211.497 150.445 210.898 151.461C210.299 152.451 209.505 153.245 208.516 153.844C207.526 154.417 206.458 154.703 205.312 154.703Z"
    fill="#FF6100" />
</svg>